<?xml version="1.0" standalone="no"?>
<!DOCTYPE svg PUBLIC "-//W3C//DTD SVG 20010904//EN"
 "http://www.w3.org/TR/2001/REC-SVG-20010904/DTD/svg10.dtd">
<svg version="1.0" xmlns="http://www.w3.org/2000/svg"
 width="400.000000pt" height="400.000000pt" viewBox="0 0 400.000000 400.000000"
 preserveAspectRatio="xMidYMid meet">
<metadata>
Created by potrace 1.14, written by Peter Selinger 2001-2017
</metadata>
<g transform="translate(0.000000,400.000000) scale(0.100000,-0.100000)"
fill="#000000" stroke="none">
<path d="M3354 3873 c4 -71 12 -157 17 -193 10 -63 32 -105 50 -94 5 3 9 -2 9
-12 0 -13 3 -14 15 -4 9 7 15 8 15 2 0 -6 8 -9 18 -7 9 1 25 -2 34 -7 13 -6
22 -3 35 12 21 25 33 26 33 3 0 -15 4 -14 19 6 l18 24 6 -25 c4 -13 9 -83 12
-154 3 -71 8 -142 11 -158 l4 -29 -19 22 c-10 12 -21 17 -23 12 -1 -6 -13 -8
-25 -5 -13 4 -21 10 -18 14 6 11 -27 23 -34 13 -10 -14 -34 -15 -42 -1 -6 9
-10 8 -15 -5 -7 -19 -34 -23 -34 -5 0 6 -3 8 -7 5 -3 -4 -12 -2 -18 3 -9 8
-15 6 -19 -7 -7 -18 8 -459 24 -703 26 -382 32 -501 26 -515 -4 -11 -13 -14
-32 -9 l-26 7 4 -84 3 -84 32 -3 c40 -4 43 -16 46 -192 l2 -125 -85 4 c-47 1
-91 8 -98 14 -10 8 -15 8 -20 0 -8 -13 -222 -5 -222 8 0 5 -4 9 -10 9 -5 0
-10 -11 -10 -25 0 -14 5 -25 10 -25 6 0 10 -19 10 -42 -1 -24 2 -60 6 -81 6
-33 4 -37 -14 -37 -11 0 -23 6 -25 13 -3 6 -6 0 -6 -15 -1 -16 4 -28 9 -28 6
0 10 -7 10 -15 0 -8 6 -15 14 -15 14 0 28 -57 16 -65 -15 -9 -50 9 -50 25 0
37 -12 50 -45 50 -17 0 -60 3 -94 6 l-61 7 -1 56 c-1 31 -3 48 -6 39 -3 -11
-14 -18 -28 -18 -18 0 -24 6 -27 28 -4 25 -5 23 -16 -16 -12 -39 -9 -94 5
-132 4 -8 7 -28 8 -43 l2 -28 -27 26 c-30 29 -36 26 -55 -30 -7 -19 -8 -48 -2
-79 7 -41 5 -80 -8 -126 -1 -3 -5 -21 -9 -40 -9 -34 -9 -35 -18 -10 -5 15 -5
26 0 28 5 1 7 14 4 27 -2 15 0 25 7 25 8 0 8 5 -1 19 -9 14 -9 28 -1 54 6 19
9 53 7 76 -2 23 0 39 4 37 5 -3 9 5 9 17 2 19 1 20 -8 5 -8 -15 -13 -16 -29
-6 -10 7 -16 16 -14 20 3 5 10 6 15 3 5 -4 9 1 9 9 0 10 -6 13 -15 10 -11 -5
-15 1 -15 20 0 14 -6 26 -12 26 -7 1 -3 9 10 20 15 13 19 21 11 26 -8 4 -1 12
17 20 l29 13 -37 -5 c-39 -6 -54 10 -22 23 8 3 13 11 10 18 -3 8 2 16 11 19
11 4 14 2 9 -9 -3 -9 0 -15 10 -15 8 0 17 -7 20 -15 4 -8 11 -15 17 -15 5 0 2
9 -9 21 -21 23 -30 69 -14 69 6 0 10 18 9 43 -1 23 1 53 4 65 6 21 4 22 -10
10 -15 -12 -15 -11 -4 10 6 12 8 22 2 22 -5 0 -12 -8 -15 -17 -6 -15 -8 -15
-16 -3 -8 12 -10 12 -10 1 0 -7 9 -21 19 -30 17 -15 18 -18 4 -36 -15 -20 -15
-19 -10 3 3 12 1 22 -4 22 -5 0 -9 -1 -9 -2 -1 -2 -3 -21 -6 -43 -7 -49 -13
-56 -21 -27 -4 18 -9 20 -25 11 -14 -7 -23 -7 -34 2 -11 9 -14 9 -14 -2 0 -8
-9 -20 -20 -27 -17 -10 -20 -10 -20 3 0 8 -5 15 -11 15 -7 0 -6 -8 4 -23 14
-22 13 -23 -11 -25 -35 -3 -52 -20 -32 -32 13 -8 12 -10 -4 -10 -15 0 -16 -3
-6 -15 10 -12 9 -15 -4 -15 -10 0 -15 -4 -12 -9 3 -5 -3 -11 -15 -14 -19 -5
-19 -4 -5 18 8 12 12 25 9 29 -9 8 -33 -14 -33 -30 0 -8 -5 -14 -11 -14 -7 0
-9 -9 -6 -21 4 -13 -2 -28 -15 -41 -13 -13 -19 -29 -16 -48 3 -21 -1 -31 -16
-39 -18 -9 -17 -10 8 -4 20 4 27 3 22 -6 -4 -6 -13 -11 -21 -11 -8 0 -17 -5
-21 -12 -5 -8 -2 -9 9 -5 11 4 17 1 17 -8 0 -8 -11 -17 -25 -21 -20 -5 -23 -9
-14 -20 6 -8 8 -14 3 -14 -4 0 -3 -5 3 -11 9 -9 7 -17 -7 -31 -10 -11 -16 -27
-13 -36 4 -10 2 -13 -5 -8 -12 7 -16 -3 -12 -41 1 -13 -4 -23 -11 -23 -8 0 -8
-4 -1 -13 8 -9 8 -17 0 -27 -8 -12 -9 -11 -4 4 5 14 2 17 -10 12 -8 -3 -18 -6
-20 -6 -3 0 -2 -5 2 -11 4 -6 -1 -10 -12 -8 -24 3 -56 -11 -70 -29 -6 -8 -16
-12 -22 -9 -6 5 -8 -1 -5 -13 4 -13 -1 -26 -12 -34 -16 -12 -16 -15 -2 -37 13
-21 14 -26 1 -37 -12 -11 -15 -10 -20 2 -6 16 -24 12 -24 -5 0 -6 5 -7 10 -4
6 3 10 1 10 -4 0 -6 -5 -11 -11 -11 -5 0 -7 -4 -4 -10 3 -5 -1 -10 -9 -10 -9
0 -16 -7 -16 -16 0 -8 -14 -20 -31 -26 -22 -8 -29 -15 -26 -29 3 -12 0 -16 -9
-12 -10 4 -12 0 -8 -11 3 -9 1 -16 -5 -16 -6 0 -11 -9 -11 -19 0 -21 -27 -36
-33 -18 -2 6 -10 -3 -17 -20 -8 -17 -17 -30 -21 -27 -4 2 -14 -4 -21 -13 -7
-10 -19 -18 -25 -19 -7 -1 -20 -2 -28 -2 -8 -1 -15 -10 -15 -19 0 -9 -7 -25
-17 -35 -15 -17 -14 -18 15 -18 17 0 33 -4 37 -10 3 -5 11 -7 18 -5 7 3 22
-11 35 -31 13 -20 26 -34 28 -31 3 3 21 1 40 -3 23 -5 34 -4 34 4 0 17 34 -42
58 -104 27 -67 52 -180 52 -237 l0 -43 88 0 88 0 1 83 c1 129 49 278 110 344
29 31 29 31 11 56 l-19 25 38 31 c21 17 58 46 81 66 24 19 50 35 58 35 8 0 14
5 14 10 0 6 10 10 23 10 13 0 28 5 34 11 7 7 54 14 105 16 77 4 104 1 158 -17
61 -21 65 -21 77 -4 12 16 10 20 -12 33 -14 9 -25 21 -25 27 0 7 -4 14 -9 16
-10 3 -42 136 -45 183 -1 24 4 31 21 33 26 4 36 -12 53 -88 11 -45 24 -66 70
-115 32 -33 62 -69 68 -80 11 -21 5 -75 -8 -75 -4 0 -11 -7 -14 -16 -4 -11 7
-31 32 -58 116 -126 135 -179 136 -378 l1 -148 408 0 407 0 0 302 c0 180 -5
328 -11 367 -9 49 -9 66 0 69 8 3 11 55 11 173 0 161 -1 169 -20 169 -21 0
-25 15 -34 135 -3 39 -17 207 -31 374 -14 167 -24 309 -21 315 2 6 5 -1 5 -16
1 -16 6 -28 11 -28 6 0 10 33 10 79 0 44 -4 83 -10 86 -5 3 -10 1 -10 -6 0 -9
-3 -10 -10 -3 -5 5 -12 45 -15 89 -3 44 -7 94 -10 110 -3 17 -7 80 -10 140 -9
184 -52 713 -85 1055 -5 47 -9 126 -9 176 -1 69 -5 95 -16 104 -8 7 -15 18
-15 24 0 6 5 4 11 -4 7 -11 8 28 4 130 -4 80 -9 148 -12 153 -2 4 -90 7 -195
7 l-190 0 6 -127z m100 -1928 c-8 -59 -23 -38 -16 23 3 28 8 40 14 34 6 -6 7
-30 2 -57z m-829 -384 c-3 -5 -1 -12 5 -16 5 -3 10 -1 10 6 0 7 3 10 6 6 3 -3
-2 -16 -11 -29 -11 -14 -15 -16 -12 -6 4 10 2 20 -3 23 -13 8 -13 25 1 25 5 0
8 -4 4 -9z m-162 -94 c9 8 9 -10 1 -31 -3 -9 -12 -16 -19 -16 -8 0 -16 -8 -18
-17 -2 -10 -2 -2 0 17 3 19 5 44 4 55 0 19 1 19 13 3 7 -10 16 -15 19 -11z
m114 8 c0 -8 -6 -15 -14 -15 -17 0 -17 17 0 23 6 3 12 6 13 6 0 1 1 -6 1 -14z
m-50 -1 c-3 -3 -12 -4 -19 -1 -8 3 -5 6 6 6 11 1 17 -2 13 -5z m388 -142 c-31
-3 -36 -6 -20 -12 16 -6 13 -8 -17 -11 -29 -4 -38 -1 -41 13 -5 16 2 18 56 16
49 -1 54 -2 22 -6z m75 -12 c0 -11 -4 -20 -9 -20 -5 0 -11 9 -14 20 -3 13 0
20 9 20 8 0 14 -9 14 -20z m-196 -16 c24 -9 19 -19 -9 -22 -16 -1 -25 3 -25
13 0 16 9 19 34 9z m165 -30 c2 -2 -23 -4 -57 -4 -33 0 -64 4 -67 10 -6 9 113
3 124 -6z m31 0 c0 -8 -5 -12 -10 -9 -6 4 -8 11 -5 16 9 14 15 11 15 -7z
m-360 -25 c0 -14 -16 -11 -29 5 -10 12 -8 13 8 9 12 -3 21 -9 21 -14z m253 -6
c-7 -2 -21 -2 -30 0 -10 3 -4 5 12 5 17 0 24 -2 18 -5z m112 -3 c3 -5 2 -10
-4 -10 -5 0 -13 5 -16 10 -3 6 -2 10 4 10 5 0 13 -4 16 -10z m30 0 c-9 -14 13
-50 30 -50 21 0 19 -18 -2 -22 -15 -3 -15 -5 -1 -18 16 -16 30 -70 18 -70 -13
0 -50 37 -43 44 3 3 0 6 -7 6 -7 0 -18 -6 -24 -14 -11 -14 -21 -14 -143 8 -7
1 -16 6 -20 11 -4 4 -3 5 4 2 6 -4 13 -3 15 3 2 7 14 7 36 0 17 -5 46 -14 62
-19 26 -8 30 -7 30 9 0 14 -7 19 -27 19 -59 0 -97 9 -110 26 -13 18 -18 11
-14 -20 1 -11 -25 20 -40 47 -8 15 -7 17 14 9 13 -5 63 -6 111 -2 68 5 90 11
97 24 6 9 12 17 15 17 3 0 2 -4 -1 -10z m-555 -60 c0 -5 -5 -10 -11 -10 -5 0
-7 5 -4 10 3 6 8 10 11 10 2 0 4 -4 4 -10z m915 3 c-22 -2 -46 -11 -52 -20
-11 -14 -13 -15 -13 -2 0 24 10 29 59 27 l46 -1 -40 -4z m-1091 -19 c3 -8 2
-12 -4 -9 -6 3 -10 10 -10 16 0 14 7 11 14 -7z m1137 -25 c-6 -16 -10 -18 -10
-7 -1 22 12 55 16 42 2 -6 -1 -22 -6 -35z m-961 11 c-20 -13 -33 -13 -25 0 3
6 14 10 23 10 15 0 15 -2 2 -10z m-34 -59 c-4 -6 -15 -11 -24 -10 -11 0 -12 3
-4 6 6 2 12 12 12 21 0 12 3 13 11 5 6 -6 8 -16 5 -22z m996 -35 c-2 -4 -7 -4
-11 2 -3 6 -22 12 -41 15 l-35 4 38 1 c28 2 37 6 38 20 1 11 4 8 8 -8 5 -14 6
-29 3 -34z m553 -6 c-3 -5 -10 -10 -16 -10 -5 0 -9 5 -9 10 0 6 7 10 16 10 8
0 12 -4 9 -10z m-592 -23 c6 -9 10 -9 14 1 12 29 23 8 23 -43 0 -30 -5 -55
-10 -55 -18 0 -100 42 -100 51 0 5 8 9 18 10 63 3 80 19 19 19 -34 0 -47 4
-47 14 0 17 71 20 83 3z m-1209 -93 c3 -8 1 -14 -4 -14 -6 0 -10 6 -11 13 0 6
-4 3 -9 -8 -8 -18 -9 -17 -9 7 -1 20 3 26 13 22 8 -3 17 -12 20 -20z m-24 -78
c0 -6 -7 -1 -15 10 -8 10 -15 23 -15 28 0 6 7 1 15 -10 8 -10 15 -23 15 -28z
m-45 24 c3 -5 1 -10 -4 -10 -6 0 -11 5 -11 10 0 6 2 10 4 10 3 0 8 -4 11 -10z
m1585 -96 c0 -2 -13 2 -30 11 -16 9 -30 18 -30 21 0 2 14 -2 30 -11 17 -9 30
-18 30 -21z m70 -19 c0 -8 -4 -15 -10 -15 -5 0 -10 7 -10 15 0 8 5 15 10 15 6
0 10 -7 10 -15z m40 -25 c8 -5 12 -11 9 -14 -3 -3 -14 1 -25 9 -21 16 -8 20
16 5z m141 -82 c23 -16 23 -16 2 -11 -13 3 -23 9 -23 14 0 5 -18 12 -41 15
-24 4 -36 10 -28 14 13 9 51 -5 90 -32z"/>
<path d="M1960 3789 c-30 -4 -87 -7 -126 -8 -92 -1 -150 -21 -338 -112 -75
-37 -199 -126 -191 -139 8 -14 -67 -20 -245 -20 -207 0 -484 -23 -592 -50
-138 -34 -210 -104 -210 -202 1 -28 5 -54 10 -57 6 -3 17 -23 25 -43 36 -85
173 -235 357 -389 78 -65 151 -117 171 -121 8 -2 18 -8 24 -14 5 -7 26 -17 46
-23 19 -6 55 -31 79 -56 24 -25 47 -45 50 -45 3 0 4 21 2 47 -1 27 3 70 10 97
12 45 18 51 74 82 66 36 144 59 234 69 131 14 173 15 186 4 11 -9 18 -8 31 2
14 12 16 12 8 0 -6 -11 -4 -13 8 -8 10 4 17 1 17 -6 0 -8 4 -7 10 3 12 19 113
18 145 -2 16 -9 69 -7 83 4 8 7 12 7 12 -2 0 -6 6 -10 12 -8 7 3 22 -4 33 -14
13 -13 28 -17 45 -13 14 3 20 2 14 -2 -9 -6 -8 -12 2 -21 8 -7 14 -8 14 -2 0
5 5 10 11 10 5 0 7 -4 4 -10 -3 -5 1 -10 10 -10 9 0 13 4 10 10 -4 7 2 7 18 1
14 -6 28 -7 31 -4 3 4 6 0 6 -9 0 -9 8 -14 23 -13 12 1 27 -2 34 -7 7 -5 17
-7 23 -3 5 3 10 1 10 -5 0 -8 10 -9 30 -5 29 6 43 -8 18 -18 -8 -4 -7 -6 4 -6
9 -1 19 5 22 12 5 10 7 10 12 0 3 -7 9 -13 14 -13 5 0 27 -18 51 -41 29 -28
45 -37 52 -30 17 17 74 13 81 -5 4 -10 16 -14 38 -12 27 2 33 -1 34 -17 1 -19
10 -48 22 -69 3 -5 -2 -7 -10 -3 -12 4 -14 1 -11 -13 3 -11 8 -18 12 -17 3 1
8 -2 9 -8 2 -5 8 -18 13 -27 6 -12 6 -18 -1 -18 -5 0 -10 7 -10 15 0 24 -20
17 -30 -10 -9 -24 -30 -35 -30 -15 0 6 -4 10 -10 10 -5 0 -10 -8 -10 -17 0
-12 -3 -14 -8 -6 -11 17 -134 12 -148 -6 -7 -9 -18 -12 -30 -6 -29 12 -44 14
-44 5 0 -5 6 -11 13 -14 6 -2 -20 -2 -58 1 -39 3 -110 0 -158 -6 -87 -12 -225
-43 -245 -55 -6 -3 -12 -2 -14 3 -1 5 -21 1 -43 -9 -22 -11 -48 -17 -57 -14
-10 3 -21 -3 -28 -16 -9 -18 -19 -21 -58 -18 -39 2 -48 7 -50 24 -2 16 -8 20
-27 16 -14 -2 -37 3 -52 13 -18 12 -28 14 -31 7 -3 -9 -9 -8 -24 2 -11 8 -27
12 -34 9 -8 -3 -21 0 -29 7 -11 9 -18 10 -28 1 -8 -6 -16 -9 -18 -7 -2 3 -22
7 -44 9 -22 3 -58 8 -79 12 -25 5 -37 4 -33 -2 4 -6 -4 -10 -18 -10 -16 0 -22
4 -18 11 4 6 -1 5 -10 -3 -13 -10 -38 -13 -100 -9 -47 4 -67 3 -47 -2 30 -6
32 -8 10 -10 -14 -2 -29 -4 -35 -5 -5 -2 -14 -4 -20 -5 -5 -1 -14 -2 -19 -1
-5 1 -12 -2 -15 -7 -3 -5 -26 -16 -51 -24 l-45 -15 2 -53 c2 -45 7 -57 32 -79
16 -15 40 -56 56 -96 14 -38 35 -87 46 -107 l20 -38 -38 0 c-21 0 -146 7 -278
15 -300 18 -413 18 -243 0 64 -7 132 -18 151 -24 19 -7 55 -11 79 -10 52 2
307 -10 334 -15 10 -2 42 -26 70 -54 28 -27 77 -62 110 -78 50 -25 71 -29 139
-29 135 1 198 36 242 134 26 59 81 199 85 216 1 6 10 19 20 30 14 15 23 17 35
9 17 -11 24 -29 28 -84 2 -19 4 -36 6 -37 5 -8 4 -29 -2 -39 -5 -5 -2 -22 6
-37 11 -21 11 -30 2 -39 -7 -7 -13 -22 -14 -33 -1 -11 -4 -32 -7 -47 -4 -21
-2 -28 10 -28 9 0 13 -5 10 -12 -3 -7 -9 -21 -12 -30 -4 -10 -14 -18 -23 -18
-14 0 -14 -2 -1 -10 13 -8 12 -10 -2 -10 -22 0 -22 -1 3 -55 11 -24 18 -49 14
-55 -3 -5 2 -10 12 -10 14 0 10 -7 -16 -30 -18 -17 -38 -30 -43 -30 -5 0 -6
-4 -3 -10 3 -5 1 -10 -5 -10 -6 0 -8 -4 -5 -10 3 -5 19 -10 36 -10 29 0 69
-30 69 -51 0 -6 -7 -8 -17 -5 -11 5 -9 -1 7 -17 14 -13 28 -22 32 -20 3 2 4
-6 1 -17 -3 -12 0 -20 6 -20 7 0 9 -4 6 -10 -4 -6 5 -10 19 -10 17 0 26 -6 26
-16 0 -8 -4 -12 -10 -9 -5 3 -10 4 -10 1 0 -3 10 -10 22 -17 18 -10 24 -8 40
12 17 20 19 21 13 4 -13 -36 -17 -60 -8 -49 10 14 48 23 61 15 13 -8 20 -40 8
-39 -5 0 -12 -6 -16 -12 -6 -10 -23 -8 -74 8 -61 18 -68 18 -82 4 -13 -13 -20
-13 -36 -3 -24 15 -58 5 -58 -16 0 -13 8 -15 42 -10 45 6 138 -9 138 -23 0 -4
9 -10 20 -13 25 -6 28 -58 4 -78 -14 -11 -18 -11 -28 2 -7 11 -19 13 -36 9
-41 -11 -100 0 -100 18 0 13 -2 13 -13 -3 -13 -17 -15 -17 -35 3 -12 12 -27
22 -32 22 -5 0 -11 6 -11 13 -1 6 -2 17 -4 22 -1 6 -3 20 -3 32 -3 30 -60 41
-102 21 l-29 -14 25 -27 c14 -16 22 -33 18 -40 -4 -6 -4 -9 1 -5 5 5 14 -1 22
-12 8 -11 20 -20 27 -20 8 0 17 -7 20 -16 5 -14 4 -15 -9 -4 -27 23 -16 3 19
-33 19 -20 33 -37 31 -39 -2 -2 5 -4 16 -5 22 -2 49 -25 50 -45 0 -7 5 2 10
20 7 24 15 32 32 31 17 -1 18 -2 5 -6 -10 -2 -18 -12 -17 -21 0 -11 3 -12 6
-5 3 8 14 11 28 7 12 -3 26 -1 29 5 10 15 26 14 26 -2 0 -21 -35 -48 -54 -41
-9 3 -16 1 -16 -6 0 -6 -4 -9 -8 -6 -4 2 -14 1 -22 -5 -11 -6 -12 -9 -2 -9 7
0 10 -5 7 -10 -4 -6 -2 -17 5 -25 10 -12 17 -11 46 6 26 14 36 16 40 6 3 -8
18 -11 46 -9 24 3 38 0 35 -5 -3 -5 0 -10 8 -10 8 0 15 5 15 10 0 6 3 7 7 4 3
-4 12 -2 20 4 7 6 13 9 13 5 0 -12 78 33 83 49 4 8 13 15 21 15 18 0 29 27 14
36 -7 5 -8 2 -3 -6 5 -9 4 -11 -3 -6 -9 5 -7 14 4 32 9 13 13 24 8 24 -4 0 2
9 13 20 31 28 39 61 19 75 -20 15 -21 29 -1 21 8 -3 15 -1 15 4 0 20 59 73 74
67 20 -8 20 1 1 46 -12 29 -19 34 -36 30 -15 -4 -20 -3 -15 5 10 16 -7 15 -23
-1 -11 -10 -12 -7 -7 16 4 16 2 27 -4 27 -5 0 -10 -8 -11 -17 0 -11 -3 -13 -6
-5 -2 6 -13 12 -24 12 -10 0 -19 4 -19 9 0 5 -9 7 -20 4 -11 -3 -20 -10 -20
-16 0 -5 -10 5 -23 24 -15 21 -31 33 -43 32 -18 -1 -18 -1 0 12 10 8 15 18 12
23 -3 6 7 24 23 40 19 22 25 34 18 41 -8 8 -6 11 6 11 9 0 17 5 17 11 0 5 -4
8 -9 4 -6 -3 -7 6 -2 22 7 23 1 39 -30 88 -42 66 -39 84 13 66 18 -7 53 -14
78 -17 24 -3 47 -10 51 -16 4 -6 12 -7 18 -4 6 4 55 10 109 13 53 3 100 10
103 15 4 6 14 8 22 5 8 -3 35 5 60 18 25 12 49 20 53 16 4 -3 4 -1 0 6 -3 6
-1 15 5 18 5 4 8 14 5 22 -3 8 -1 11 4 8 6 -3 10 -1 10 4 0 6 4 11 9 11 6 0 8
-9 6 -19 -2 -13 1 -18 9 -15 6 2 13 19 14 36 2 17 8 38 14 45 7 9 7 17 -2 28
-8 10 -9 15 -2 15 6 0 16 -8 21 -17 9 -16 10 -16 11 5 0 12 -5 22 -12 22 -6 0
-4 6 6 13 15 11 22 28 25 60 1 4 10 7 22 7 14 0 19 5 16 14 -3 8 -1 17 6 20 9
3 8 7 -2 14 -11 8 -10 12 8 21 18 10 21 9 22 -6 0 -11 3 -13 6 -5 2 6 11 12
19 12 8 0 14 9 14 21 0 12 -5 19 -12 16 -7 -2 -12 -9 -11 -15 2 -7 -4 -9 -14
-5 -11 4 -13 8 -5 11 7 2 10 7 7 12 -3 5 2 16 11 24 10 11 11 16 3 16 -8 0 -5
7 6 20 10 11 28 20 41 20 13 0 26 5 29 10 11 18 27 11 22 -10 -3 -10 -1 -20 4
-22 5 -2 11 -22 12 -45 1 -23 6 -45 10 -49 4 -4 7 -25 7 -46 0 -21 4 -38 10
-38 10 0 31 34 29 47 -6 36 3 93 15 93 13 0 56 -85 56 -112 0 -20 -37 -71 -44
-60 -3 5 -2 12 1 16 11 11 15 56 4 56 -5 0 -11 -12 -14 -27 -3 -16 -12 -59
-20 -97 -15 -66 -15 -70 4 -94 17 -22 24 -22 20 1 0 4 5 7 12 7 17 0 40 62 26
70 -6 4 -4 11 6 20 8 7 15 19 15 26 0 8 8 14 19 14 32 0 118 140 105 173 -3 8
-1 18 5 22 19 11 13 27 -7 16 -24 -13 -112 16 -112 36 0 13 3 13 18 2 9 -7 14
-10 11 -6 -8 9 44 67 60 67 6 0 12 5 12 10 1 6 3 15 4 20 1 6 3 16 4 23 1 6
11 1 22 -13 19 -22 20 -33 14 -115 -6 -83 -6 -88 9 -70 8 11 16 25 16 31 0 6
7 17 15 24 8 7 12 16 9 21 -3 5 -1 9 4 9 11 0 30 43 35 77 2 12 6 26 10 29 13
13 7 44 -8 44 -8 0 -15 5 -15 11 0 8 -15 10 -48 6 -67 -8 -84 6 -33 27 23 9
45 15 49 13 4 -1 7 3 7 8 0 6 -21 9 -48 7 -48 -3 -49 -3 -43 25 16 81 17 135
6 289 -6 93 -16 196 -21 229 -6 33 -12 72 -15 87 -2 15 -19 68 -39 118 -19 50
-40 121 -46 158 -15 90 -33 124 -85 167 -24 20 -44 41 -44 46 0 6 -20 32 -46
59 -34 36 -58 52 -102 65 -31 9 -92 30 -134 46 -64 25 -208 69 -353 109 -47
13 -105 16 -165 9z m-1441 -383 c-2 -2 -20 -6 -39 -10 -25 -4 -31 -3 -20 4 14
9 69 15 59 6z m-207 -89 c-11 -12 -25 -33 -31 -47 -6 -16 -10 -19 -10 -8 -1
16 44 78 57 78 3 0 -4 -10 -16 -23z m471 -520 c-5 -8 -8 -7 -11 1 -2 7 -7 10
-12 7 -4 -3 -10 2 -13 10 -5 12 -2 12 18 3 13 -6 21 -16 18 -21z m22 -57 c-3
-4 1 -11 7 -13 7 -3 8 -6 2 -6 -5 -1 -18 5 -28 12 -16 12 -16 13 4 14 11 1 18
-2 15 -7z m45 -40 c0 -5 5 -10 11 -10 13 0 59 -41 59 -53 0 -4 -12 4 -27 18
-16 14 -36 28 -45 31 -19 6 -25 24 -8 24 6 0 10 -4 10 -10z m1704 -195 c-4 -8
-8 -15 -10 -15 -2 0 -4 7 -4 15 0 8 4 15 10 15 5 0 7 -7 4 -15z m61 -6 c-4 -5
-1 -9 4 -9 15 0 14 -39 -2 -54 -10 -11 -13 -4 -12 35 0 26 3 45 8 42 4 -2 5
-9 2 -14z m-43 -39 c-4 -31 -16 -38 -28 -18 -5 7 -3 8 6 3 10 -6 12 -4 7 9 -7
19 -1 36 12 36 4 0 6 -13 3 -30z m81 5 c4 -8 3 -16 -1 -19 -4 -3 -9 4 -9 15
-2 23 3 25 10 4z m-58 -4 c3 -5 1 -12 -5 -16 -5 -3 -10 1 -10 9 0 18 6 21 15
7z m262 -87 c-3 -3 -12 -4 -19 -1 -8 3 -5 6 6 6 11 1 17 -2 13 -5z m-40 -10
c-3 -3 -12 -4 -19 -1 -8 3 -5 6 6 6 11 1 17 -2 13 -5z m-92 -14 c-3 -5 -16
-10 -28 -9 -20 1 -20 2 3 9 14 4 26 8 28 9 2 1 0 -3 -3 -9z m-625 -30 c13 -9
12 -13 -6 -28 -12 -9 -30 -22 -40 -29 -17 -11 -17 -12 9 -12 15 -1 27 -5 27
-9 0 -11 -28 -36 -58 -51 -19 -10 -23 -9 -28 6 -3 10 -10 26 -15 35 -5 10 -6
24 -3 33 3 8 2 15 -3 15 -5 0 -18 7 -29 15 -10 8 -14 15 -9 14 6 -1 17 1 25 4
8 4 35 8 60 10 25 2 47 4 50 5 3 1 12 -3 20 -8z m80 -10 c0 -5 -13 -8 -30 -8
-28 1 -37 8 -25 20 8 8 55 -3 55 -12z m448 -39 c1 -24 -4 -41 -13 -45 -16 -6
-29 20 -14 29 5 4 7 11 3 16 -7 13 2 39 15 39 5 0 9 -18 9 -39z m-1490 -37
c-1 -63 -2 -65 -29 -71 -19 -3 -29 -12 -29 -23 0 -17 -40 -29 -104 -30 -14 -1
-16 -4 -8 -12 9 -9 18 -8 37 0 29 13 57 5 34 -9 -8 -5 -9 -9 -3 -9 6 0 10 -15
9 -35 -3 -39 4 -48 25 -35 12 7 12 12 2 22 -18 18 -15 38 7 38 22 0 64 47 55
62 -3 5 -14 6 -25 3 -11 -4 -19 -2 -19 4 0 6 14 11 30 11 27 0 32 -4 29 -26 0
-3 9 -14 20 -23 12 -10 21 -23 21 -29 0 -6 6 -13 13 -16 8 -4 7 -9 -6 -18 -11
-7 -41 -30 -69 -50 -28 -20 -55 -39 -60 -40 -5 -2 -10 -14 -11 -26 -1 -20 -3
-21 -12 -8 -10 13 -15 12 -41 -5 -27 -18 -28 -19 -6 -20 12 -1 28 -2 35 -3 10
-1 13 -30 8 -79 -1 -4 -16 3 -33 17 -40 30 -89 110 -119 194 -18 52 -20 65 -9
72 11 7 11 11 1 24 -10 11 -11 30 -6 63 6 38 9 44 16 28 5 -14 8 -15 8 -4 1 8
-4 20 -11 27 -9 9 -4 12 25 12 28 0 35 -3 31 -15 -5 -11 -2 -13 10 -9 9 3 16
14 16 25 0 10 8 23 18 28 16 10 15 11 -3 12 -11 2 12 5 50 9 39 4 78 7 87 8
15 2 17 -7 16 -64z m807 28 c-3 -3 -11 0 -18 7 -9 10 -8 11 6 5 10 -3 15 -9
12 -12z m220 -32 c17 -7 16 -9 -10 -9 -16 0 -37 4 -45 9 -12 8 -10 10 10 9 14
0 34 -4 45 -9z m552 -55 c-4 -8 -16 -15 -27 -15 -17 0 -19 2 -8 14 7 8 16 12
21 9 4 -2 7 1 7 8 0 7 3 10 6 6 4 -3 4 -13 1 -22z m-807 7 c0 -12 -23 -32 -37
-32 -17 0 -17 27 0 33 19 8 37 8 37 -1z m-156 -57 c11 -25 23 -45 28 -45 19 0
6 -19 -28 -39 -46 -27 -50 -27 -58 10 -4 22 0 41 13 63 10 17 16 37 14 44 -3
6 -1 12 4 12 5 0 17 -20 27 -45z m-436 15 c-7 -11 -16 -16 -21 -11 -12 12 0
31 19 31 12 0 12 -3 2 -20z m991 -24 c10 -12 8 -13 -8 -9 -12 3 -18 9 -15 14
7 12 10 11 23 -5z m-86 -226 c3 -11 1 -20 -4 -20 -5 0 -9 9 -9 20 0 11 2 20 4
20 2 0 6 -9 9 -20z m121 1 c-5 -5 -22 -13 -39 -16 -30 -7 -30 -7 5 12 35 19
52 21 34 4z m-84 -21 c0 -5 -5 -10 -11 -10 -5 0 -7 5 -4 10 3 6 8 10 11 10 2
0 4 -4 4 -10z m-950 -45 c-7 -14 -20 -25 -27 -25 -10 0 -7 9 8 30 26 35 38 31
19 -5z m1105 -85 c3 -5 1 -10 -4 -10 -6 0 -11 5 -11 10 0 6 2 10 4 10 3 0 8
-4 11 -10z m-640 -154 l1 -43 -31 8 c-26 7 -28 7 -12 -5 13 -10 14 -15 4 -19
-7 -3 -23 6 -36 19 -14 15 -17 22 -8 18 9 -3 24 -1 34 5 10 6 12 11 5 11 -10
0 -10 5 -2 20 6 11 15 18 21 15 5 -4 9 -3 8 2 -3 16 1 26 8 19 4 -3 7 -26 8
-50z m128 -249 c3 -8 0 -14 -7 -14 -7 0 -13 6 -13 14 0 7 4 13 8 13 4 0 9 -6
12 -13z m-131 -79 c-7 -7 -12 -8 -12 -2 0 14 12 26 19 19 2 -3 -1 -11 -7 -17z
m104 -147 c13 -29 12 -40 -2 -45 -15 -6 -19 -1 -27 35 -7 29 17 37 29 10z
m-82 -110 c-14 -13 -73 -21 -79 -12 -7 12 10 17 54 19 19 1 30 -2 25 -7z"/>
<path d="M1085 2240 c3 -5 13 -10 21 -10 8 0 12 5 9 10 -3 6 -13 10 -21 10 -8
0 -12 -4 -9 -10z"/>
<path d="M897 2110 c3 -11 9 -17 15 -14 5 3 4 12 -3 20 -16 19 -18 18 -12 -6z"/>
<path d="M1063 3663 c-2 -34 0 -44 7 -33 12 18 13 80 2 80 -4 0 -8 -21 -9 -47z"/>
<path d="M2230 2641 c0 -11 31 -24 39 -16 3 3 -1 10 -9 15 -19 12 -30 12 -30
1z"/>
<path d="M2416 2517 c3 -10 9 -15 12 -12 3 3 0 11 -7 18 -10 9 -11 8 -5 -6z"/>
<path d="M2340 2510 c0 -5 5 -10 10 -10 6 0 10 5 10 10 0 6 -4 10 -10 10 -5 0
-10 -4 -10 -10z"/>
<path d="M2 2388 c3 -22 8 -23 138 -35 173 -15 190 -15 190 -3 0 5 -7 7 -15 4
-11 -5 -13 -2 -8 12 4 12 3 15 -6 10 -6 -4 -17 -3 -24 2 -7 5 -59 13 -117 16
-58 4 -118 9 -133 12 -26 5 -28 3 -25 -18z"/>
<path d="M335 2379 c-11 -4 -15 -8 -9 -8 7 -1 14 -10 17 -22 7 -26 30 -20 32
9 2 25 -12 32 -40 21z"/>
<path d="M428 2338 c6 -6 18 -8 28 -6 14 3 12 5 -9 10 -19 3 -25 2 -19 -4z"/>
<path d="M537 2339 c7 -7 15 -10 18 -7 3 3 -2 9 -12 12 -14 6 -15 5 -6 -5z"/>
<path d="M0 2143 c0 -19 9 -20 158 -27 174 -8 244 -12 471 -27 84 -5 156 -7
159 -4 3 3 -7 5 -23 5 -16 0 -36 6 -44 13 -15 13 -253 34 -603 54 -113 6 -118
5 -118 -14z m707 -39 c-3 -3 -12 -4 -19 -1 -8 3 -5 6 6 6 11 1 17 -2 13 -5z"/>
<path d="M3322 2140 c0 -14 2 -19 5 -12 2 6 2 18 0 25 -3 6 -5 1 -5 -13z"/>
<path d="M0 1929 c0 -5 50 -9 112 -9 61 0 109 2 107 4 -9 8 -219 13 -219 5z"/>
<path d="M2936 1887 c-25 -25 -35 -57 -18 -57 11 0 56 70 49 76 -3 3 -17 -5
-31 -19z"/>
<path d="M3200 1770 c0 -5 9 -10 20 -10 11 0 20 5 20 10 0 6 -9 10 -20 10 -11
0 -20 -4 -20 -10z"/>
<path d="M3258 1773 c7 -3 16 -2 19 1 4 3 -2 6 -13 5 -11 0 -14 -3 -6 -6z"/>
<path d="M2781 1735 c-19 -59 -12 -97 19 -105 36 -10 70 5 70 30 0 11 -4 20
-10 20 -5 0 -10 11 -10 25 0 14 5 25 10 25 6 0 10 5 10 11 0 11 -16 9 -52 -6
-12 -5 -17 0 -20 17 -3 19 -6 17 -17 -17z"/>
<path d="M3320 1755 c0 -8 7 -15 15 -15 8 0 15 7 15 15 0 8 -7 15 -15 15 -8 0
-15 -7 -15 -15z"/>
<path d="M2540 1750 c0 -6 7 -10 15 -10 8 0 15 2 15 4 0 2 -7 6 -15 10 -8 3
-15 1 -15 -4z"/>
<path d="M3910 1737 c0 -11 13 -16 45 -19 31 -2 45 1 45 9 0 8 -12 13 -29 13
-16 0 -36 3 -45 6 -10 4 -16 1 -16 -9z"/>
<path d="M327 1723 c-4 -3 -7 -17 -7 -30 0 -19 -4 -22 -22 -18 -94 21 -124 25
-205 25 l-93 0 0 -71 c0 -44 4 -68 10 -64 5 3 10 2 10 -4 0 -6 7 -8 15 -5 8 4
15 1 15 -5 0 -6 -11 -11 -25 -11 l-25 0 0 -120 c0 -100 3 -120 15 -120 8 0 15
-4 15 -10 0 -5 -7 -10 -15 -10 -13 0 -15 -33 -15 -240 l0 -240 31 0 c24 0 30
-4 25 -15 -4 -12 1 -15 29 -12 19 2 38 6 41 10 4 3 16 2 26 -4 14 -7 23 -8 30
-1 6 6 26 8 44 5 30 -5 34 -3 34 16 0 18 6 21 41 21 33 0 39 3 30 13 -12 15
-1 104 25 193 16 56 27 64 99 64 84 0 84 -1 78 -100 -5 -75 -3 -91 11 -106 10
-9 15 -25 13 -36 -4 -15 -1 -18 16 -13 12 4 29 15 37 24 9 10 27 25 42 35 16
10 28 29 30 44 2 18 10 28 28 32 21 5 19 7 -19 13 l-43 8 21 18 c13 11 19 25
15 35 -7 19 9 21 24 3 7 -8 7 -18 2 -27 -14 -21 -12 -30 4 -30 9 0 12 7 9 20
-5 17 0 20 28 20 32 0 35 3 52 50 18 51 37 66 37 29 0 -11 -5 -29 -11 -41 -14
-26 -8 -31 23 -19 30 11 45 39 20 37 -14 -1 -17 7 -14 41 2 34 -1 43 -17 48
-27 8 -31 45 -7 79 18 27 20 27 30 10 13 -22 36 -29 36 -12 0 7 9 24 20 38 11
14 20 31 20 38 0 20 -36 14 -54 -10 l-17 -23 5 23 c3 14 -3 29 -15 41 -17 16
-18 19 -4 31 23 19 19 39 -7 34 -17 -4 -15 -1 7 10 l30 14 -30 2 c-30 2 -30 2
-5 10 21 7 19 8 -17 9 -24 1 -43 4 -43 9 0 10 59 41 89 47 32 6 35 10 22 32
-6 10 -11 12 -11 6 0 -15 -40 -18 -40 -3 0 6 3 9 8 8 13 -3 52 13 52 22 0 5
-15 11 -32 13 l-33 4 31 1 c22 1 37 10 48 27 12 18 23 24 36 20 10 -3 21 -2
24 4 4 5 -70 11 -182 15 -103 4 -220 9 -259 12 -73 6 -73 6 -73 -19 0 -37 25
-57 73 -58 23 0 36 -3 29 -6 -8 -3 -66 -2 -129 2 l-116 7 6 59 c5 61 5 64 -6
52z m-194 -70 c-13 -2 -33 -2 -45 0 -13 2 -3 4 22 4 25 0 35 -2 23 -4z m80 0
c-7 -2 -21 -2 -30 0 -10 3 -4 5 12 5 17 0 24 -2 18 -5z m540 -10 c-7 -2 -21
-2 -30 0 -10 3 -4 5 12 5 17 0 24 -2 18 -5z m-585 -25 c34 0 62 -3 62 -7 0 -5
12 -8 28 -9 46 0 50 -1 55 -21 5 -22 -28 -36 -60 -25 -12 5 -15 4 -8 -4 6 -6
21 -12 35 -15 45 -8 -84 -5 -140 3 l-55 8 60 0 c33 0 67 1 75 2 25 4 -71 18
-127 19 -61 1 -71 18 -15 24 35 3 35 4 -9 5 -34 2 -46 6 -46 18 0 12 8 14 41
8 23 -4 69 -7 104 -6z m149 6 c-3 -3 -12 -4 -19 -1 -8 3 -5 6 6 6 11 1 17 -2
13 -5z m468 -49 l0 -40 -60 -5 c-44 -4 -52 -7 -30 -10 22 -4 31 -11 33 -27 2
-13 -1 -23 -7 -23 -6 0 -11 5 -11 11 0 8 -16 10 -52 5 -29 -3 -80 -6 -113 -5
-33 1 -70 2 -82 2 -15 -1 -20 3 -16 11 4 6 8 16 8 21 0 6 40 9 105 8 83 -2 99
0 77 8 -25 10 -27 14 -21 43 3 17 8 35 11 39 3 4 39 7 81 5 l77 -3 0 -40z
m-371 -45 c33 -12 25 -35 -17 -45 l-32 -8 35 -7 c30 -6 31 -8 9 -9 -15 0 -41
2 -58 5 -27 6 -31 10 -31 40 0 32 2 34 34 34 19 0 46 -4 60 -10z m69 -67 c-7
-2 -19 -2 -25 0 -7 3 -2 5 12 5 14 0 19 -2 13 -5z m110 -10 c-18 -2 -48 -2
-65 0 -18 2 -4 4 32 4 36 0 50 -2 33 -4z m207 -3 c0 -5 -4 -10 -9 -10 -6 0
-13 5 -16 10 -3 6 1 10 9 10 9 0 16 -4 16 -10z m-642 -47 c-15 -2 -42 -2 -60
0 -18 2 -6 4 27 4 33 0 48 -2 33 -4z m520 -10 c-2 -14 -11 -17 -33 -15 -35 5
-39 7 -30 21 3 6 20 11 36 11 24 0 30 -4 27 -17z m-128 -9 c0 -2 -7 -4 -15 -4
-8 0 -15 4 -15 10 0 5 7 7 15 4 8 -4 15 -8 15 -10z m-434 -31 c-7 -7 -97 -5
-105 3 -2 2 22 4 54 4 32 0 55 -3 51 -7z m137 -3 c-11 -5 -43 -5 -70 0 -48 8
-48 8 22 8 49 1 64 -2 48 -8z m580 -7 c-7 -2 -21 -2 -30 0 -10 3 -4 5 12 5 17
0 24 -2 18 -5z m-347 -56 c-4 -19 0 -26 19 -35 14 -7 33 -28 42 -48 17 -35 17
-36 -7 -55 -14 -11 -35 -24 -48 -29 -31 -13 -115 -13 -107 0 3 5 0 28 -6 51
-11 35 -10 45 6 75 10 19 26 34 35 34 10 0 23 7 30 15 20 24 43 19 36 -8z
m-411 3 c3 -5 -1 -10 -10 -10 -9 0 -13 5 -10 10 3 6 8 10 10 10 2 0 7 -4 10
-10z m702 -222 c-3 -8 -6 -5 -6 6 -1 11 2 17 5 13 3 -3 4 -12 1 -19z"/>
<path d="M2564 1654 c9 -8 16 -21 15 -27 0 -8 -2 -8 -6 1 -2 6 -9 10 -14 6 -5
-3 -5 -13 2 -25 10 -19 9 -20 -10 -9 -12 6 -26 8 -31 5 -6 -3 -10 -1 -10 6 0
7 -3 9 -6 6 -9 -8 23 -57 37 -57 6 0 8 7 5 16 -4 11 -2 15 8 11 8 -3 22 0 31
7 25 18 12 76 -17 76 -18 0 -18 -1 -4 -16z"/>
<path d="M940 1639 c0 -5 5 -7 10 -4 6 3 10 8 10 11 0 2 -4 4 -10 4 -5 0 -10
-5 -10 -11z"/>
<path d="M2520 1630 c0 -5 5 -10 11 -10 5 0 7 5 4 10 -3 6 -8 10 -11 10 -2 0
-4 -4 -4 -10z"/>
<path d="M1071 1603 c-1 -7 -14 -13 -30 -13 -32 0 -33 -2 -46 -103 -4 -31 -2
-53 5 -62 7 -8 9 -18 6 -24 -4 -5 2 -12 13 -16 11 -3 18 -13 16 -23 -1 -9 4
-29 12 -44 7 -16 11 -28 8 -28 -14 0 39 -57 75 -81 29 -20 36 -29 27 -38 -8
-8 -8 -11 1 -11 7 0 9 -10 6 -30 -6 -27 -4 -30 19 -30 14 0 28 4 31 9 3 5 -9
46 -27 92 -19 46 -39 107 -46 134 -7 28 -18 75 -26 105 -8 30 -21 82 -29 115
-8 33 -14 54 -15 48z"/>
<path d="M2813 1560 c0 -30 2 -43 4 -27 2 15 2 39 0 55 -2 15 -4 2 -4 -28z"/>
<path d="M2430 1520 c0 -5 5 -10 11 -10 5 0 7 5 4 10 -3 6 -8 10 -11 10 -2 0
-4 -4 -4 -10z"/>
<path d="M2302 1434 c4 -21 22 -23 26 -1 2 10 -3 17 -13 17 -10 0 -15 -6 -13
-16z"/>
<path d="M1592 1410 c-8 -13 -8 -20 -1 -20 5 0 7 -4 4 -10 -3 -5 -2 -10 3 -10
9 0 21 31 22 53 0 14 -15 7 -28 -13z"/>
<path d="M2622 1393 c-27 -30 -27 -33 -4 -33 13 0 14 -2 3 -9 -9 -6 -10 -11
-2 -15 6 -4 11 -2 11 4 0 6 5 8 11 4 8 -4 8 0 0 15 -14 24 -4 52 10 30 7 -11
9 -10 9 3 0 27 -14 28 -38 1z"/>
<path d="M1830 1208 c0 -4 4 -8 9 -8 6 0 12 4 15 8 3 5 -1 9 -9 9 -8 0 -15 -4
-15 -9z"/>
<path d="M850 1190 c0 -5 5 -10 11 -10 5 0 7 5 4 10 -3 6 -8 10 -11 10 -2 0
-4 -4 -4 -10z"/>
<path d="M1740 1099 c0 -11 4 -18 10 -14 5 3 7 12 3 20 -7 21 -13 19 -13 -6z"/>
<path d="M1687 1090 c3 -11 7 -20 9 -20 2 0 4 9 4 20 0 11 -4 20 -9 20 -5 0
-7 -9 -4 -20z"/>
<path d="M1173 1060 c-23 -17 -51 -46 -63 -65 -12 -19 -27 -36 -33 -36 -7 -1
-30 -4 -52 -7 -81 -11 -145 -8 -155 8 -9 13 -10 13 -11 0 -1 -8 -1 -18 -1 -21
1 -3 -35 -20 -79 -38 -75 -31 -130 -69 -205 -141 -45 -43 -208 -101 -327 -117
-32 -4 -53 -13 -62 -27 -8 -11 -15 -17 -15 -13 0 4 -10 1 -22 -7 -13 -7 -36
-14 -53 -15 -16 0 -43 -4 -60 -9 l-30 -8 -3 -282 -2 -282 546 0 546 0 -6 23
c-3 12 -9 62 -12 112 -6 74 -3 103 15 168 23 83 36 109 88 171 37 44 38 49 20
68 -47 47 -39 85 38 175 40 47 54 70 48 82 -4 9 -7 59 -8 111 0 97 -23 181
-49 180 -6 -1 -30 -14 -53 -30z"/>
<path d="M834 990 c-39 -39 -47 -51 -37 -61 10 -10 24 7 52 59 14 27 11 28
-15 2z"/>
<path d="M895 970 c3 -5 8 -10 11 -10 2 0 4 5 4 10 0 6 -5 10 -11 10 -5 0 -7
-4 -4 -10z"/>
<path d="M1290 909 c0 -27 2 -30 15 -19 11 9 12 17 4 31 -14 27 -19 24 -19
-12z"/>
<path d="M1596 915 c-17 -13 -17 -15 -3 -15 10 0 14 -5 11 -15 -4 -10 0 -15
14 -15 19 0 20 3 11 30 -6 17 -12 30 -12 30 -1 0 -11 -7 -21 -15z"/>
<path d="M508 833 c7 -3 16 -2 19 1 4 3 -2 6 -13 5 -11 0 -14 -3 -6 -6z"/>
<path d="M1351 769 c-1 -35 -9 -56 -32 -89 -21 -29 -28 -45 -20 -53 14 -14
101 32 100 53 0 8 -11 42 -24 75 l-24 60 0 -46z"/>
<path d="M285 783 c-11 -3 -22 -9 -25 -14 -3 -4 -44 -11 -90 -14 -153 -11
-170 -14 -170 -36 0 -17 8 -19 98 -19 55 0 140 3 189 6 l91 7 10 33 c5 18 7
35 4 38 -6 7 -78 6 -107 -1z"/>
<path d="M430 781 c0 -5 7 -11 15 -15 9 -3 15 0 15 9 0 8 -7 15 -15 15 -8 0
-15 -4 -15 -9z"/>
<path d="M1819 752 c-5 -63 -4 -100 3 -96 12 8 9 -11 -4 -24 -7 -7 -9 -12 -5
-12 3 0 2 -12 -3 -26 -9 -24 -7 -22 30 12 22 21 40 44 40 51 0 7 5 13 11 13 6
0 4 7 -5 15 -8 9 -14 21 -12 28 1 7 1 9 -1 4 -3 -4 -9 -4 -15 -1 -6 4 -5 -3 1
-15 13 -23 7 -41 -12 -41 -8 0 -8 3 2 9 10 6 10 10 1 16 -7 5 -10 19 -6 40 5
24 2 34 -9 39 -10 3 -15 -1 -16 -12z"/>
<path d="M1760 730 c0 -5 5 -10 11 -10 5 0 7 5 4 10 -3 6 -8 10 -11 10 -2 0
-4 -4 -4 -10z"/>
<path d="M2655 646 c-27 -7 -61 -18 -75 -26 -35 -18 -131 -102 -125 -109 3 -2
20 9 38 26 44 42 121 79 192 92 66 12 98 32 50 30 -17 0 -52 -6 -80 -13z"/>
<path d="M1886 641 c-4 -7 -5 -15 -2 -18 9 -9 19 4 14 18 -4 11 -6 11 -12 0z"/>
<path d="M2778 643 c6 -2 18 -2 25 0 6 3 1 5 -13 5 -14 0 -19 -2 -12 -5z"/>
</g>
</svg>
